<svg xmlns="http://www.w3.org/2000/svg" viewBox="-4 -2 65 62" width="1024" height="1024">
  <rect x="-4" y="-2" width="65" height="62" rx="8" fill="none"/>
  <style>
    .p { fill: #8a65c4; }
    .t { fill: #7dbcdb; }
  </style>
  <rect class="t" x="31.55" y="43.43" width="9.54" height="14.58" rx="4.77" ry="4.77"/>
  <rect class="p" x="31.44" y="30.76" width="9.76" height="9.76" rx="4.88" ry="4.88"/>
  <rect class="t" x="15.67" y="18.57" width="9.76" height="9.76" rx="4.88" ry="4.88"/>
  <rect class="p" x="0" y="37.43" width="9.54" height="20.59" rx="4.77" ry="4.77"/>
  <rect class="p" x="15.78" y="31.25" width="9.54" height="26.77" rx="4.77" ry="4.77"/>
  <rect class="t" x="47.33" y="24.4" width="9.54" height="33.62" rx="4.77" ry="4.77"/>
  <rect class="p" x="15.78" y="1.07" width="9.54" height="14.58" rx="4.77" ry="4.77" transform="translate(41.1 16.73) rotate(-180)"/>
  <rect class="t" x="47.33" y="1.07" width="9.54" height="20.59" rx="4.77" ry="4.77" transform="translate(104.2 22.74) rotate(-180)"/>
  <rect class="t" x="31.55" y="1.07" width="9.54" height="26.77" rx="4.77" ry="4.77" transform="translate(72.65 28.92) rotate(-180)"/>
  <rect class="p" x="0" y="1.07" width="9.54" height="33.62" rx="4.77" ry="4.77" transform="translate(9.54 35.77) rotate(-180)"/>
</svg>